# xmcd
#
# Track frame offsets:
#	150
#	15138
#	32692
#	51186
#	68243
#	85912
#	105326
#	121483
#	135321
#	153735
#	170508
#	190175
#	206341
#	220832
#	234402
#	246920
#
# Disc length: 3309
#
# Revision: 2
# Processed by: cddbd v1.5.1PL0 Copyright (c) Steve Scherf et al.
# Submitted via: audiograbber 1.82.00
# Normalized: r1:DSETVAR1
#
DISCID=ce0ceb10
DTITLE=Various Artist - CDX 326
DYEAR=2003
DGENRE=Country
TTITLE0=Kevin DENNEY - A year at a time
TTITLE1=James OTTO - Days of our lives
TTITLE2=Wynonna JUDD - Heaven help me
TTITLE3=Mindy SMITH - Jolene
TTITLE4=Brad PAISLEY - Little moments
TTITLE5=Shania TWAIN - Nah!
TTITLE6=Gene WATSON - New woman
TTITLE7=Rick TREVINO - Overnight success
TTITLE8=Sara EVANS - Perfect
TTITLE9=Rosanne CASH - September when it comes
TTITLE10=Leland MARTIN - Simply traditional
TTITLE11=Jerry BURKHARDT - Dodging memories
TTITLE12=Daniel Lee MARTIN - Homespun love
TTITLE13=Royal Wade KIMES - Mile high honey
TTITLE14=Rick HERTLESS - We're together (but we're still too far apart)
TTITLE15=Rick HERTLESS - PSA
EXTD=
EXTT0=
EXTT1=
EXTT2=
EXTT3=
EXTT4=
EXTT5=
EXTT6=
EXTT7=
EXTT8=
EXTT9=
EXTT10=
EXTT11=
EXTT12=
EXTT13=
EXTT14=
EXTT15=
PLAYORDER=
